#!OML:ASF X:\für Bonn\!DataBase\2005_08_11_Bastian_Final\c3d\Bastian.ASF
:FULLY-SPECIFIED
:DEGREES
132
root -0.533835 17.0591 22.2398 -733.891 -188.053 -721.493
lowerback 33.1841 -12.3788 3.96478
upperback 14.7935 -9.26298 4.86033
thorax -0.372428 -2.5278 5.75448
lowerneck -20.5074 0.272413 -0.165466
upperneck 1.09458 0.902621 -1.00067
head 3.53362 0.568023 -0.196915
rclavicle 1.11319e-013 6.04305e-014
rhumerus -14.9557 8.18314 -73.62
rradius 29.2854
rwrist -5.00794
rhand -18.754 4.19395
rfingers 7.12502
rthumb 7.5426 -25.6516
lclavicle 1.11319e-013 6.04305e-014
lhumerus -7.70804 -28.6293 88.4888
lradius 35.3161
lwrist 21.1455
lhand -11.3439 -11.552
lfingers 7.12502
lthumb 14.6892 17.9077
rfemur -9.68559 -0.882294 17.123
rtibia 41.1077
rfoot -10.0142 -4.54161
rtoes -4.92403
lfemur -5.21198 8.01387 -20.4442
ltibia 37.4383
lfoot -11.1323 3.14275
ltoes -14.0471
133
root -0.548449 17.0294 22.2988 -733.879 -188.182 -721.611
lowerback 34.0593 -12.5999 3.95039
upperback 15.0936 -9.25522 4.86008
thorax -0.348963 -2.44385 5.82532
lowerneck -20.793 0.347816 -0.128751
upperneck 0.50776 1.05652 -1.17726
head 3.39418 0.660364 -0.244
rclavicle 9.54166e-014 1.22451e-013
rhumerus -13.9912 8.60392 -73.2042
rradius 29.4635
rwrist -5.17606
rhand -18.9431 4.15485
rfingers 7.12502
rthumb 7.36008 -25.6971
lclavicle 9.54166e-014 1.22451e-013
lhumerus -6.89475 -28.8958 87.5207
lradius 35.975
lwrist 20.977
lhand -11.4822 -11.7696
lfingers 7.12502
lthumb 14.5559 17.6997
rfemur -10.327 -1.10691 16.9531
rtibia 41.711
rfoot -10.0331 -4.17756
rtoes -4.99699
lfemur -6.07693 8.26747 -20.7164
ltibia 38.0841
lfoot -11.1225 2.56647
ltoes -14.5997
134
root -0.563367 16.9987 22.358 -733.891 -188.346 -721.712
lowerback 35.0012 -12.8131 3.90362
upperback 15.4049 -9.22279 4.87496
thorax -0.322509 -2.34514 5.9245
lowerneck -21.185 0.446608 -0.0682308
upperneck -0.0367479 1.24108 -1.36709
head 3.2837 0.769424 -0.295986
rclavicle -7.95139e-015 -1.1291e-013
rhumerus -12.9686 8.95054 -72.7544
rradius 29.6228
rwrist -5.35031
rhand -19.129 4.11405
rfingers 7.12502
rthumb 7.18059 -25.7441
lclavicle -7.95139e-015 -1.1291e-013
lhumerus -6.03131 -29.2426 86.4651
lradius 36.6855
lwrist 20.9099
lhand -11.6006 -11.9368
lfingers 7.12502
lthumb 14.4418 17.5407
rfemur -10.945 -1.29654 16.8129
rtibia 42.32
rfoot -10.05 -3.84528
rtoes -5.02805
lfemur -6.93904 8.52632 -20.9659
ltibia 38.6531
lfoot -11.0689 1.88528
ltoes -15.0703
135
root -0.57863 16.9681 22.4169 -733.895 -188.513 -721.827
lowerback 35.9694 -13.0233 3.8558
upperback 15.6799 -9.18963 4.87503
thorax -0.336207 -2.24886 6.01006
lowerneck -21.5582 0.548147 0.0523578
upperneck -0.56475 1.41597 -1.60228
head 3.1764 0.871947 -0.372601
rclavicle -2.8625e-014 -1.11319e-013
rhumerus -12.0049 9.37971 -72.3154
rradius 29.8092
rwrist -5.63934
rhand -19.3619 4.03263
rfingers 7.12502
rthumb 6.95581 -25.8331
lclavicle -2.8625e-014 -1.11319e-013
lhumerus -5.21598 -29.5611 85.3907
lradius 37.3957
lwrist 20.8794
lhand -11.7039 -12.0265
lfingers 7.12502
lthumb 14.3423 17.458
rfemur -11.5855 -1.44968 16.6645
rtibia 42.955
rfoot -10.0876 -3.50983
rtoes -4.88499
lfemur -7.83397 8.75787 -21.2426
ltibia 39.1222
lfoot -10.9623 1.20791
ltoes -15.8302
136
root -0.594207 16.9368 22.4756 -733.869 -188.689 -721.927
lowerback 36.9384 -13.2301 3.85019
upperback 15.9201 -9.14627 4.85507
thorax -0.386558 -2.14799 6.04979
lowerneck -21.5195 0.665499 0.265626
upperneck -1.65609 1.58146 -1.8347
head 3.25888 0.978359 -0.501592
rclavicle -3.65764e-014 -2.38542e-014
rhumerus -11.1001 9.69493 -71.8992
rradius 30.0082
rwrist -5.83294
rhand -19.537 3.95884
rfingers 7.12502
rthumb 6.78682 -25.9124
lclavicle -3.65764e-014 -2.38542e-014
lhumerus -4.43013 -29.8702 84.2716
lradius 38.1079
lwrist 20.8208
lhand -11.7315 -12.0437
lfingers 7.12502
lthumb 14.3157 17.4428
rfemur -12.2703 -1.58357 16.5455
rtibia 43.6163
rfoot -10.1311 -3.21096
rtoes -4.76413
lfemur -8.74273 8.99124 -21.5024
ltibia 39.4947
lfoot -10.8694 0.366638
ltoes -15.8919
137
root -0.609841 16.8999 22.5348 -733.881 -188.892 -722.051
lowerback 37.9683 -13.4179 3.79528
upperback 16.1595 -9.08077 4.82629
thorax -0.443056 -2.03635 6.09955
lowerneck -21.8027 0.759239 0.393049
upperneck -2.21913 1.74111 -2.03006
head 3.11322 1.07914 -0.57395
rclavicle -6.83819e-014 -1.01778e-013
rhumerus -10.1677 9.96783 -71.4784
rradius 30.1597
rwrist -6.04112
rhand -19.7667 3.86573
rfingers 7.12502
rthumb 6.56503 -26.0125
lclavicle -6.83819e-014 -1.01778e-013
lhumerus -3.59963 -30.1202 83.1352
lradius 38.763
lwrist 20.7472
lhand -11.7845 -12.0749
lfingers 7.12502
lthumb 14.2647 17.4151
rfemur -12.9542 -1.66675 16.4071
rtibia 44.3192
rfoot -10.188 -2.9237
rtoes -4.72488
lfemur -9.5645 9.20629 -21.7845
ltibia 39.765
lfoot -10.7456 -0.596479
ltoes -15.1931
138
root -0.626036 16.8583 22.5955 -733.866 -189.108 -722.174
lowerback 39.0981 -13.6061 3.79361
upperback 16.2707 -8.98838 4.77608
thorax -0.515141 -1.91324 6.10838
lowerneck -22.0045 0.833253 0.544213
upperneck -2.87944 1.87265 -2.23547
head 2.9183 1.17011 -0.657032
rclavicle -1.44715e-013 1.43125e-013
rhumerus -9.26883 10.1288 -71.0692
rradius 30.3065
rwrist -6.17879
rhand -19.9858 3.76861
rfingers 7.12502
rthumb 6.35355 -26.1161
lclavicle -1.44715e-013 1.43125e-013
lhumerus -2.74803 -30.4491 81.9356
lradius 39.4199
lwrist 20.7367
lhand -11.786 -12.063
lfingers 7.12502
lthumb 14.2632 17.4272
rfemur -13.6978 -1.74858 16.2833
rtibia 45.0531
rfoot -10.2574 -2.63574
rtoes -4.81945
lfemur -10.4084 9.39705 -22.0657
ltibia 39.9733
lfoot -10.5288 -1.58997
ltoes -13.881
139
root -0.642633 16.8165 22.6578 -733.853 -189.328 -722.291
lowerback 40.1881 -13.7737 3.752
upperback 16.4539 -8.88645 4.7602
thorax -0.634717 -1.78633 6.15206
lowerneck -22.3056 0.89047 0.571618
upperneck -3.3749 2.00379 -2.3634
head 2.7986 1.26048 -0.691275
rclavicle 4.92986e-014 -3.18055e-015
rhumerus -8.39186 10.3275 -70.6217
rradius 30.4394
rwrist -6.33447
rhand -20.2618 3.68835
rfingers 7.12502
rthumb 6.08711 -26.2042
lclavicle 4.92986e-014 -3.18055e-015
lhumerus -1.89735 -30.676 80.7904
lradius 40.0253
lwrist 20.6628
lhand -11.795 -12.1031
lfingers 7.12502
lthumb 14.2546 17.3877
rfemur -14.4544 -1.75119 16.1771
rtibia 45.8083
rfoot -10.3286 -2.40237
rtoes -4.60702
lfemur -11.2695 9.56588 -22.3348
ltibia 40.1542
lfoot -10.2138 -2.51936
ltoes -11.6934
140
root -0.659063 16.774 22.7199 -733.838 -189.588 -722.394
lowerback 41.2886 -13.9243 3.72824
upperback 16.6285 -8.75793 4.7209
thorax -0.761894 -1.64495 6.15024
lowerneck -22.6468 0.935352 0.659575
upperneck -3.79554 2.10119 -2.50669
head 2.71348 1.33081 -0.744509
rclavicle 0 1.06549e-013
rhumerus -7.55177 10.3782 -70.1998
rradius 30.5826
rwrist -6.37724
rhand -20.4956 3.63255
rfingers 7.12502
rthumb 5.86132 -26.2664
lclavicle 0 1.06549e-013
lhumerus -1.02885 -30.9198 79.5918
lradius 40.5966
lwrist 20.5874
lhand -11.7678 -12.1518
lfingers 7.12502
lthumb 14.2807 17.3371
rfemur -15.2152 -1.68764 16.1041
rtibia 46.5711
rfoot -10.3966 -2.22874
rtoes -4.56708
lfemur -12.1428 9.72639 -22.5763
ltibia 40.3733
lfoot -9.86018 -3.25656
ltoes -9.61906
141
root -0.675547 16.7314 22.783 -733.813 -189.842 -722.515
lowerback 42.3966 -14.0561 3.64272
upperback 16.7948 -8.62734 4.69729
thorax -0.879041 -1.50874 6.1907
lowerneck -23.0208 0.989705 0.719382
upperneck -4.18903 2.21854 -2.63859
head 2.6435 1.41205 -0.786774
rclavicle 8.11041e-014 -3.33958e-014
rhumerus -6.70192 10.5164 -69.7528
rradius 30.7247
rwrist -6.45731
rhand -20.7462 3.58163
rfingers 7.12502
rthumb 5.61936 -26.3239
lclavicle 8.11041e-014 -3.33958e-014
lhumerus -0.13938 -31.1088 78.3754
lradius 41.1445
lwrist 20.5809
lhand -11.7509 -12.2413
lfingers 7.12502
lthumb 14.2971 17.2465
rfemur -16.0085 -1.65652 16.017
rtibia 47.3504
rfoot -10.4697 -2.01957
rtoes -4.55077
lfemur -13.0421 9.90322 -22.8422
ltibia 40.6666
lfoot -9.54842 -3.69296
ltoes -8.12574
142
root -0.691471 16.6838 22.8461 -733.805 -190.12 -722.643
lowerback 43.5602 -14.1506 3.47795
upperback 16.9416 -8.47335 4.70655
thorax -1.00908 -1.36909 6.29552
lowerneck -23.3634 1.04937 0.73934
upperneck -4.57364 2.35142 -2.77305
head 2.57065 1.50122 -0.82143
rclavicle 3.49861e-014 -1.24042e-013
rhumerus -5.83521 10.6304 -69.2581
rradius 30.8381
rwrist -6.52203
rhand -20.9778 3.56251
rfingers 7.12502
rthumb 5.39574 -26.3488
lclavicle 3.49861e-014 -1.24042e-013
lhumerus 0.721964 -31.2273 77.1841
lradius 41.6792
lwrist 20.6105
lhand -11.6783 -12.3818
lfingers 7.12502
lthumb 14.367 17.101
rfemur -16.8123 -1.651 15.9222
rtibia 48.1552
rfoot -10.5521 -1.75198
rtoes -4.47618
lfemur -13.8916 10.0799 -23.101
ltibia 41.0676
lfoot -9.39695 -3.88413
ltoes -7.05057
